<svg width="100" height="100" viewBox="0 0 100 100" fill="none" xmlns="http://www.w3.org/2000/svg">
<rect width="100" height="100" rx="8" fill="white"/>
<rect width="100" height="100" rx="8" fill="#004F99"/>
<path d="M18.084 36.5801L10.0775 64.1083C9.70533 65.388 10.6652 66.6668 11.9979 66.6668H50.7368C52.0488 66.6668 53.0055 65.4249 52.6706 64.1563L45.505 37.0141C45.0938 35.4562 43.1033 34.9993 42.0538 36.2218L34.1562 45.4213C33.3977 46.3049 32.0476 46.3561 31.2243 45.5326L21.4188 35.7246C20.3435 34.6491 18.5088 35.1197 18.084 36.5801Z" fill="#F2F2F2"/>
<path d="M84.3709 60.3711C85.152 61.1521 85.1585 62.4295 84.2895 63.1114C82.2375 64.7218 79.8282 65.8341 77.2516 66.3466C74.0185 66.9897 70.6674 66.6596 67.622 65.3982C64.5766 64.1367 61.9736 62.0005 60.1422 59.2597C58.3109 56.5189 57.3334 53.2965 57.3334 50.0002C57.3334 46.7038 58.3109 43.4815 60.1422 40.7407C61.9736 37.9998 64.5765 35.8636 67.622 34.6022C70.6674 33.3407 74.0185 33.0107 77.2515 33.6537C79.8281 34.1663 82.2375 35.2785 84.2895 36.8889C85.1585 37.5709 85.152 38.8482 84.3709 39.6293L75.4143 48.5859C74.6332 49.367 74.6332 50.6333 75.4143 51.4144L84.3709 60.3711Z" fill="#F2F2F2"/>
</svg>
